<?xml version="1.0" encoding="UTF-8"?>
<svg version="1.1" xmlns="http://www.w3.org/2000/svg" width="215" height="183">
<path d="M0 0 C3.4296875 1.46875 3.4296875 1.46875 6.875 3.5 C7.78354736 4.03379272 7.78354736 4.03379272 8.71044922 4.57836914 C13.32909665 7.37767965 17.29674041 10.61991119 21.1328125 14.43359375 C23.22563455 16.18928756 24.29507141 16.72752551 27 17 C29.0026589 16.6830324 31.00229244 16.34680773 33 16 C35.85496106 15.85045103 38.70418769 15.85795362 41.5625 15.875 C42.34737793 15.87693359 43.13225586 15.87886719 43.94091797 15.88085938 C50.66192907 15.93010757 57.30980276 16.33807236 64 17 C64.21398437 16.4328125 64.42796875 15.865625 64.6484375 15.28125 C68.49934271 8.78145623 78.79739243 2.28082573 86 0 C89.04288646 -0.58172829 90.83033903 -0.47544914 94 0 C99.56354053 4.36061285 100.41675494 12.74291721 101.6015625 19.359375 C101.95515449 22.59023512 101.95319633 25.6075306 101.78222656 28.84716797 C101.45971249 35.75129657 101.93502133 40.40119653 106.40234375 45.9140625 C111.53976445 52.62159955 113.15318962 61.05974468 113.0625 69.3125 C113.05347656 70.38113281 113.04445312 71.44976562 113.03515625 72.55078125 C113.01775391 73.76314453 113.01775391 73.76314453 113 75 C114.26457031 74.96519531 115.52914062 74.93039063 116.83203125 74.89453125 C118.49217423 74.86639323 120.15233156 74.83909309 121.8125 74.8125 C122.64587891 74.78736328 123.47925781 74.76222656 124.33789062 74.73632812 C125.14033203 74.72666016 125.94277344 74.71699219 126.76953125 74.70703125 C127.50792236 74.6913208 128.24631348 74.67561035 129.00708008 74.65942383 C131.57230943 75.09780371 132.47034985 75.92494557 134 78 C133.6875 80.6875 133.6875 80.6875 133 83 C125.98194143 84.10087193 119.09434233 84.09733092 112 84 C111.01 86.64 110.02 89.28 109 92 C109.60585937 92.17015625 110.21171875 92.3403125 110.8359375 92.515625 C115.44934395 93.8499641 120.03637556 95.26832379 124.5625 96.875 C125.38878906 97.16117187 126.21507812 97.44734375 127.06640625 97.7421875 C129 99 129 99 129.8359375 101.51171875 C130 104 130 104 129.0625 105.9375 C126.31904116 107.35079698 124.55536063 106.80017222 121.671875 105.94921875 C115.7044386 103.82920845 109.8499196 101.42223234 104 99 C103.73445312 99.58265625 103.46890625 100.1653125 103.1953125 100.765625 C97.38111773 111.63398907 84.30377811 116.85360723 73.25 120.875 C63.1083761 123.74961871 53.05506202 124.31630371 42.5625 124.25 C40.73235352 124.26160156 40.73235352 124.26160156 38.86523438 124.2734375 C21.39786979 124.23629265 5.33110052 121.42475785 -9 111 C-9.63035156 110.54238281 -10.26070312 110.08476563 -10.91015625 109.61328125 C-14.09521813 107.13253281 -16.15728797 104.58305117 -18 101 C-23.62105434 101.71205606 -28.02465308 103.71447399 -33.09765625 106.13671875 C-36.55757207 107.1658458 -37.87958458 106.67758113 -41 105 C-41.25 102.6875 -41.25 102.6875 -41 100 C-37.99388953 97.18087248 -34.75751949 96.05738647 -30.875 94.8125 C-29.82054687 94.46832031 -28.76609375 94.12414062 -27.6796875 93.76953125 C-25 93 -25 93 -23 93 C-24.485 88.545 -24.485 88.545 -26 84 C-27.20398438 84.02320312 -28.40796875 84.04640625 -29.6484375 84.0703125 C-31.22395215 84.08906863 -32.79947348 84.10726899 -34.375 84.125 C-35.56609375 84.15013672 -35.56609375 84.15013672 -36.78125 84.17578125 C-38.85492015 84.19335473 -40.92883241 84.10335168 -43 84 C-45 82 -45 82 -45.25 79.5 C-45 77 -45 77 -43 75 C-40.0906442 74.85482256 -37.280054 74.81369204 -34.375 74.875 C-33.57320312 74.88402344 -32.77140625 74.89304687 -31.9453125 74.90234375 C-29.96341477 74.92593777 -27.98167019 74.96180935 -26 75 C-26.05800781 73.91203125 -26.11601563 72.8240625 -26.17578125 71.703125 C-26.53454365 62.00103816 -25.73352463 54.71612184 -21 46 C-20.59652344 45.24460938 -20.19304688 44.48921875 -19.77734375 43.7109375 C-18.89179739 42.11758885 -17.95340453 40.55369626 -17 39 C-16.34 39 -15.68 39 -15 39 C-15.02094727 38.40687012 -15.04189453 37.81374023 -15.06347656 37.20263672 C-15.94395188 8.40886479 -15.94395188 8.40886479 -9.296875 1.13671875 C-5.9730298 -0.50824546 -3.6741155 -0.40563483 0 0 Z " fill="#5B3720" transform="translate(66,12)"/>
<path d="M0 0 C1.093125 0.00257812 2.18625 0.00515625 3.3125 0.0078125 C4.405625 0.00523438 5.49875 0.00265625 6.625 0 C9.3125 0.1328125 9.3125 0.1328125 10.3125 1.1328125 C10.55213134 6.52451757 10.55213134 6.52451757 9.5 9.1953125 C9.4071875 10.154375 9.4071875 10.154375 9.3125 11.1328125 C11.94890136 14.29649414 14.48457132 16.573286 18.3125 18.1328125 C18.4053125 17.1428125 18.4053125 17.1428125 18.5 16.1328125 C19.63421465 11.94494302 21.50988099 8.45558517 24.3125 5.1328125 C27.125 4.1328125 27.125 4.1328125 29.3125 4.1328125 C29.99609375 5.87109375 29.99609375 5.87109375 30.3125 8.1328125 C29.09765625 10.17578125 29.09765625 10.17578125 27.375 12.3203125 C24.47207949 16.40191302 23.68933265 19.12785942 23.90625 24.08984375 C24.35770519 26.36014244 25.27708561 28.07481944 26.3125 30.1328125 C25.9375 32.3828125 25.9375 32.3828125 25.3125 34.1328125 C22.9375 33.9453125 22.9375 33.9453125 20.3125 33.1328125 C18.45242075 29.85553001 18.3125 27.9668371 18.3125 24.1328125 C17.301875 23.9265625 16.29125 23.7203125 15.25 23.5078125 C10.66342343 22.23480349 7.6751803 19.38306276 4.3125 16.1328125 C0.16709102 17.55779684 -3.21003817 19.67911251 -6.8203125 22.109375 C-8.6875 23.1328125 -8.6875 23.1328125 -11.6875 23.1328125 C-11.81125 24.2259375 -11.935 25.3190625 -12.0625 26.4453125 C-12.6875 30.1328125 -12.6875 30.1328125 -14.6875 33.1328125 C-16.3375 32.8028125 -17.9875 32.4728125 -19.6875 32.1328125 C-19.5225 31.5140625 -19.3575 30.8953125 -19.1875 30.2578125 C-18.02355136 22.98313352 -17.89017177 17.2834666 -21.91015625 10.921875 C-22.9073895 8.62673516 -22.49795614 7.44694514 -21.6875 5.1328125 C-20.3675 4.8028125 -19.0475 4.4728125 -17.6875 4.1328125 C-16.84680585 5.73313387 -16.01518495 7.33822421 -15.1875 8.9453125 C-14.7234375 9.83863281 -14.259375 10.73195313 -13.78125 11.65234375 C-12.6875 14.1328125 -12.6875 14.1328125 -12.6875 17.1328125 C-9.3875 15.4828125 -6.0875 13.8328125 -2.6875 12.1328125 C-2.4101499 8.94791243 -2.4101499 8.94791243 -4.6875 6.1328125 C-3.98082312 0.19672672 -3.98082312 0.19672672 0 0 Z " fill="#F2D1C1" transform="translate(105.6875,77.8671875)"/>
<path d="M0 0 C3.75 0.375 3.75 0.375 6.5625 2.4375 C9.10431667 5.85079668 9.86168941 8.25646907 10.75 12.375 C12.07 12.375 13.39 12.375 14.75 12.375 C14.94622241 8.15621808 14.55230168 5.20489106 12.75 1.375 C13.74 1.705 14.73 2.035 15.75 2.375 C15.75 3.035 15.75 3.695 15.75 4.375 C16.41 4.375 17.07 4.375 17.75 4.375 C18.5 7.0625 18.5 7.0625 18.75 10.375 C16.9375 13.25 16.9375 13.25 14.75 15.375 C14.09 15.375 13.43 15.375 12.75 15.375 C13.2553125 15.91769531 13.760625 16.46039063 14.28125 17.01953125 C15.25578125 18.09267578 15.25578125 18.09267578 16.25 19.1875 C16.8996875 19.89519531 17.549375 20.60289063 18.21875 21.33203125 C19.75 23.375 19.75 23.375 19.75 26.375 C18.10546875 27.76171875 18.10546875 27.76171875 15.9375 29.0625 C14.87595703 29.71798828 14.87595703 29.71798828 13.79296875 30.38671875 C11.75 31.375 11.75 31.375 8.75 31.375 C7.1 27.415 5.45 23.455 3.75 19.375 C2.1 19.705 0.45 20.035 -1.25 20.375 C-1.97153427 18.13022671 -2.34679526 16.75008163 -1.75 14.4375 C-1.11819239 11.8312936 -1.60668389 9.94826442 -2.25 7.375 C-3.57 7.705 -4.89 8.035 -6.25 8.375 C-4.09476534 0.47247292 -4.09476534 0.47247292 0 0 Z " fill="#5A331D" transform="translate(84.25,63.625)"/>
<path d="M0 0 C-0.33 1.65 -0.66 3.3 -1 5 C-1.66 5 -2.32 5 -3 5 C-3.66 7.31 -4.32 9.62 -5 12 C-6.32 12 -7.64 12 -9 12 C-9.10183594 12.69480469 -9.20367187 13.38960937 -9.30859375 14.10546875 C-10.11717006 17.49052552 -11.46675713 20.22287019 -13.0625 23.3125 C-13.61035156 24.38113281 -14.15820312 25.44976562 -14.72265625 26.55078125 C-15.14417969 27.35902344 -15.56570312 28.16726562 -16 29 C-19.3081187 27.9775732 -21.74275366 27.19936592 -24.5 25.0625 C-26.56420406 20.84808337 -25.79943473 17.93957549 -24.96875 13.42578125 C-24 11 -24 11 -21.90625 9.66796875 C-21.2771875 9.44753906 -20.648125 9.22710937 -20 9 C-20 8.01 -20 7.02 -20 6 C-19.34 6.66 -18.68 7.32 -18 8 C-15.58517587 8.50059916 -15.58517587 8.50059916 -13 8 C-10.4230235 5.8647909 -8.86286526 3.79429788 -7 1 C-4 0 -4 0 0 0 Z M-8 12 C-6.515 12.99 -6.515 12.99 -5 14 C-5.99 14 -6.98 14 -8 14 C-8 13.34 -8 12.68 -8 12 Z " fill="#5A341E" transform="translate(140,67)"/>
<path d="M0 0 C4.09996911 2.56931397 6.55769504 6.07991806 8.4375 10.5 C8.75 14 8.75 14 8.4375 16.5 C6.7875 16.83 5.1375 17.16 3.4375 17.5 C2.93346232 16.20990357 2.43440074 14.91786211 1.9375 13.625 C1.6590625 12.90570313 1.380625 12.18640625 1.09375 11.4453125 C0.4375 9.5 0.4375 9.5 0.4375 7.5 C-3.20331664 5.16987735 -6.31191713 5.03630005 -10.5625 5.5 C-13.47632147 8.45544749 -14.1259495 11.21767366 -14.75 15.25 C-14.90855469 16.23484375 -15.06710938 17.2196875 -15.23046875 18.234375 C-15.39482422 19.35585937 -15.39482422 19.35585937 -15.5625 20.5 C-17.21864657 20.88218767 -18.88707024 21.21395102 -20.5625 21.5 C-20.8925 21.17 -21.2225 20.84 -21.5625 20.5 C-21.51112642 14.63056793 -20.41540411 8.66796564 -17.5625 3.5 C-12.17752777 -1.75034792 -6.98508704 -2.94108928 0 0 Z " fill="#EDC47B" transform="translate(91.5625,59.5)"/>
<path d="M0 0 C4.15867603 0.49904112 6.46559429 2.29197214 9.125 5.375 C12.65539461 11.25899102 12.45416895 16.63313232 12.125 23.375 C10.1875 23.9375 10.1875 23.9375 8.125 24.375 C5.91164167 22.16164167 6.28754292 17.35963103 5.91796875 14.35546875 C4.99792441 10.89737107 3.92586734 9.55460287 1.125 7.375 C-1.875 6.70833333 -1.875 6.70833333 -4.875 7.375 C-8.86153608 10.22252577 -10.16947984 13.94064757 -11.875 18.375 C-13.525 18.045 -15.175 17.715 -16.875 17.375 C-16.40895651 12.62135636 -15.85210055 9.17336967 -12.875 5.375 C-8.47464285 2.00451367 -5.35989232 0.69911639 0 0 Z " fill="#F1CA7E" transform="translate(137.875,57.625)"/>
<path d="M0 0 C3.1108633 4.66629496 3.12311555 8.79648451 3.0625 14.3125 C3.05347656 15.38113281 3.04445312 16.44976562 3.03515625 17.55078125 C3.02355469 18.35902344 3.01195312 19.16726562 3 20 C4.26457031 19.96519531 5.52914062 19.93039063 6.83203125 19.89453125 C8.49217423 19.86639323 10.15233156 19.83909309 11.8125 19.8125 C12.64587891 19.78736328 13.47925781 19.76222656 14.33789062 19.73632812 C15.54155273 19.72182617 15.54155273 19.72182617 16.76953125 19.70703125 C17.50792236 19.6913208 18.24631348 19.67561035 19.00708008 19.65942383 C21.57230943 20.09780371 22.47034985 20.92494557 24 23 C23.6875 25.6875 23.6875 25.6875 23 28 C16.16920852 29.18225237 9.87368733 28.74464946 3 28 C3.04125 27.21625 3.0825 26.4325 3.125 25.625 C3.28728734 22.83883881 3.28728734 22.83883881 1 21 C0.83984375 18.75 0.83984375 18.75 0.9375 16 C1.04466514 10.59173279 0.6517001 5.36488832 0 0 Z " fill="#735B4B" transform="translate(176,67)"/>
<path d="M0 0 C0.66 1.32 1.32 2.64 2 4 C1.34 4 0.68 4 0 4 C0.66 5.98 1.32 7.96 2 10 C-0.90480458 11.93653639 -3.6884266 13.33551106 -6.875 14.75 C-8.41800781 15.45382813 -8.41800781 15.45382813 -9.9921875 16.171875 C-13.50536071 17.13913827 -14.84884748 16.69766889 -18 15 C-18.25 12.6875 -18.25 12.6875 -18 10 C-14.99388953 7.18087248 -11.75751949 6.05738647 -7.875 4.8125 C-6.82054687 4.46832031 -5.76609375 4.12414062 -4.6796875 3.76953125 C-2 3 -2 3 0 3 C0 2.01 0 1.02 0 0 Z " fill="#6E5646" transform="translate(43,102)"/>
<path d="M0 0 C3.75 0.375 3.75 0.375 6.5625 2.4375 C9.10431667 5.85079668 9.86168941 8.25646907 10.75 12.375 C12.07 12.375 13.39 12.375 14.75 12.375 C14.94622241 8.15621808 14.55230168 5.20489106 12.75 1.375 C13.74 1.705 14.73 2.035 15.75 2.375 C15.75 3.035 15.75 3.695 15.75 4.375 C16.41 4.375 17.07 4.375 17.75 4.375 C18.5 7.0625 18.5 7.0625 18.75 10.375 C16.8125 13.25 16.8125 13.25 14.75 15.375 C11.9375 15.25 11.9375 15.25 8.75 14.375 C7.71708324 12.39179982 6.7162501 10.39152194 5.75 8.375 C2.47629725 7.16889899 -0.77922914 7.18739076 -4.25 7.375 C-5.24 7.87 -5.24 7.87 -6.25 8.375 C-4.09476534 0.47247292 -4.09476534 0.47247292 0 0 Z " fill="#5F350F" transform="translate(84.25,63.625)"/>
<path d="M0 0 C0.82514784 2.83384108 1.07936233 5.16935251 0.87890625 8.109375 C0.83056641 8.86347656 0.78222656 9.61757812 0.73242188 10.39453125 C0.67634766 11.17183594 0.62027344 11.94914062 0.5625 12.75 C0.51029297 13.54277344 0.45808594 14.33554688 0.40429688 15.15234375 C0.27510676 17.10193997 0.13830035 19.05102886 0 21 C-3.63 21.66 -7.26 22.32 -11 23 C-11.33 23.99 -11.66 24.98 -12 26 C-7.71 26.33 -3.42 26.66 1 27 C0.67 28.32 0.34 29.64 0 31 C-0.33 30.34 -0.66 29.68 -1 29 C-2.20398438 29.02320312 -3.40796875 29.04640625 -4.6484375 29.0703125 C-6.22395215 29.08906863 -7.79947348 29.10726899 -9.375 29.125 C-10.1690625 29.14175781 -10.963125 29.15851563 -11.78125 29.17578125 C-13.85492015 29.19335473 -15.92883241 29.10335168 -18 29 C-20 27 -20 27 -20.25 24.5 C-20 22 -20 22 -18 20 C-15.0906442 19.85482256 -12.280054 19.81369204 -9.375 19.875 C-8.57320312 19.88402344 -7.77140625 19.89304687 -6.9453125 19.90234375 C-4.96341477 19.92593777 -2.98167019 19.96180935 -1 20 C-1.01160156 18.80761719 -1.02320312 17.61523438 -1.03515625 16.38671875 C-1.04453592 14.82031406 -1.05363593 13.25390769 -1.0625 11.6875 C-1.07087891 10.90181641 -1.07925781 10.11613281 -1.08789062 9.30664062 C-1.09272461 8.1706543 -1.09272461 8.1706543 -1.09765625 7.01171875 C-1.10551147 5.96697388 -1.10551147 5.96697388 -1.11352539 4.90112305 C-1 3 -1 3 0 0 Z " fill="#89776A" transform="translate(41,67)"/>
<path d="M0 0 C1.41805831 0.28482368 2.83440379 0.57818144 4.25 0.875 C5.03890625 1.03742188 5.8278125 1.19984375 6.640625 1.3671875 C9.00508587 2.00136409 10.91439831 2.71904286 13 4 C13.9375 6.4375 13.9375 6.4375 14 9 C13.0625 10.9375 13.0625 10.9375 11 12 C6.40285612 11.1843777 2.28164925 9.87322155 -2 8 C1.75 6.875 1.75 6.875 4 8 C4.33 6.35 4.66 4.7 5 3 C3.68 3 2.36 3 1 3 C0.67 2.01 0.34 1.02 0 0 Z " fill="#755A4E" transform="translate(182,107)"/>
<path d="M0 0 C0.33 0 0.66 0 1 0 C1.36504603 1.58086048 1.71660506 3.16483907 2.0625 4.75 C2.25972656 5.63171875 2.45695312 6.5134375 2.66015625 7.421875 C3.00903375 10.06853189 2.78646612 11.48726547 2 14 C1.67 15.65 1.34 17.3 1 19 C-3.62 19 -8.24 19 -13 19 C-12 15 -12 15 -11 14 C-9.15108054 13.76636119 -7.29511969 13.58696365 -5.4375 13.4375 C-2.7459375 13.2209375 -2.7459375 13.2209375 0 13 C0 8.71 0 4.42 0 0 Z " fill="#51341F" transform="translate(41,75)"/>
<path d="M0 0 C6.90546218 6.54201681 6.90546218 6.54201681 7.125 12.25 C7.08375 13.1575 7.0425 14.065 7 15 C5.35 15.33 3.7 15.66 2 16 C1.49596232 14.70990357 0.99690074 13.41786211 0.5 12.125 C0.2215625 11.40570313 -0.056875 10.68640625 -0.34375 9.9453125 C-1 8 -1 8 -1 6 C-1.99 5.67 -2.98 5.34 -4 5 C-2.68 4.34 -1.36 3.68 0 3 C0 2.01 0 1.02 0 0 Z " fill="#E7BF79" transform="translate(93,61)"/>
<path d="M0 0 C0.33 0.66 0.66 1.32 1 2 C1.99 2 2.98 2 4 2 C4.66 3.98 5.32 5.96 6 8 C5.34 8 4.68 8 4 8 C3.896875 9.11375 3.79375 10.2275 3.6875 11.375 C3.460625 12.57125 3.23375 13.7675 3 15 C2.01 15.66 1.02 16.32 0 17 C-1.69242399 14.04497399 -2.27328801 11.90004978 -2.25 8.5 C-2.25515625 7.7471875 -2.2603125 6.994375 -2.265625 6.21875 C-1.97250404 3.7703279 -1.21816769 2.12695946 0 0 Z " fill="#633F2C" transform="translate(131,91)"/>
<path d="M0 0 C1.32 1.65 2.64 3.3 4 5 C-3.2 11 -3.2 11 -8 11 C-8.33 9.35 -8.66 7.7 -9 6 C-3.25 3 -3.25 3 -1 3 C-0.67 2.01 -0.34 1.02 0 0 Z " fill="#613D29" transform="translate(101,84)"/>
<path d="M0 0 C1.875 0.0625 1.875 0.0625 4 1 C5.95320589 4.20883825 7 6.2205439 7 10 C6.01 10.33 5.02 10.66 4 11 C3.34 11.66 2.68 12.32 2 13 C1.29773859 11.75823305 0.61370891 10.50614401 -0.0625 9.25 C-0.44535156 8.55390625 -0.82820313 7.8578125 -1.22265625 7.140625 C-2.13839484 4.61889261 -1.94180896 3.47561212 -1 1 C-0.67 0.67 -0.34 0.34 0 0 Z " fill="#F2D1C0" transform="translate(85,82)"/>
<path d="M0 0 C1.98 0.66 3.96 1.32 6 2 C5.25 8.625 5.25 8.625 3 12 C1.35 11.67 -0.3 11.34 -2 11 C-1.34 7.37 -0.68 3.74 0 0 Z " fill="#ECCAB9" transform="translate(88,99)"/>
<path d="M0 0 C0.66 0.99 1.32 1.98 2 3 C2.86175198 4.07327292 3.7369604 5.13587416 4.625 6.1875 C5.40875 7.115625 6.1925 8.04375 7 9 C6.01 9.33 5.02 9.66 4 10 C3.67 10.33 3.34 10.66 3 11 C0 11 0 11 -1.6875 9.5 C-2.120625 9.005 -2.55375 8.51 -3 8 C-4.98 8.66 -6.96 9.32 -9 10 C-9.33 9.01 -9.66 8.02 -10 7 C-9.04287109 6.61908203 -9.04287109 6.61908203 -8.06640625 6.23046875 C-6.82697266 5.71419922 -6.82697266 5.71419922 -5.5625 5.1875 C-4.73878906 4.85105469 -3.91507812 4.51460938 -3.06640625 4.16796875 C-0.66627512 3.11596912 -0.66627512 3.11596912 0 0 Z " fill="#ECCCBC" transform="translate(113,86)"/>
<path d="M0 0 C0.66 0.66 1.32 1.32 2 2 C0.741875 2.391875 -0.51625 2.78375 -1.8125 3.1875 C-5.77158276 4.63986193 -7.12998067 6.15607138 -9 10 C-9.66 10 -10.32 10 -11 10 C-11.33 10.66 -11.66 11.32 -12 12 C-13 9 -13 9 -11.25 5.4375 C-8.44392785 0.5687554 -5.53988282 -0.47147939 0 0 Z " fill="#673F0B" transform="translate(139,64)"/>
<path d="M0 0 C0 0.99 0 1.98 0 3 C-0.763125 3.185625 -1.52625 3.37125 -2.3125 3.5625 C-6.05646079 5.56508368 -6.38492646 8.16420034 -8 12 C-10.6875 13.9375 -10.6875 13.9375 -13 15 C-14.32 14.01 -15.64 13.02 -17 12 C-16.071875 11.87625 -16.071875 11.87625 -15.125 11.75 C-14.42375 11.5025 -13.7225 11.255 -13 11 C-12.57847656 10.1028125 -12.57847656 10.1028125 -12.1484375 9.1875 C-10.70366024 6.43554331 -8.96556507 5.12318905 -6.5 3.25 C-5.30890625 2.32960938 -5.30890625 2.32960938 -4.09375 1.390625 C-2 0 -2 0 0 0 Z " fill="#756254" transform="translate(143,18)"/>
<path d="M0 0 C0.66 0.33 1.32 0.66 2 1 C1.34 1.66 0.68 2.32 0 3 C-0.165 4.155 -0.33 5.31 -0.5 6.5 C-1 10 -1 10 -3 12 C-4.05570415 17.43233195 -4.29136927 22.92154531 -4.5625 28.4375 C-4.60568359 29.26443359 -4.64886719 30.09136719 -4.69335938 30.94335938 C-4.79838033 32.96209549 -4.89958559 34.98102951 -5 37 C-5.33 37 -5.66 37 -6 37 C-6.45217966 24.85028029 -6.84831736 13.41300984 -2 2 C-1.34 1.34 -0.68 0.68 0 0 Z " fill="#A99D92" transform="translate(57,13)"/>
<path d="M0 0 C3.41021743 0.78697325 6.68885166 1.87119943 10 3 C8.515 5.475 8.515 5.475 7 8 C4.6568787 7.74438677 2.32156597 7.40729228 0 7 C-1.33332095 4.3333581 -0.67102033 2.83319697 0 0 Z " fill="#4F3424" transform="translate(179,107)"/>
<path d="M0 0 C2.61984486 1.30992243 3.03394425 2.25045672 4 5 C3.625 8.25 3.625 8.25 3 11 C2.01 11 1.02 11 0 11 C-1.56633048 8.51229865 -2.04100928 7.34447796 -1.6875 4.375 C-1 2 -1 2 0 0 Z M2 0 C5 1 5 1 5 1 Z " fill="#56321B" transform="translate(135,99)"/>
<path d="M0 0 C0.66 0 1.32 0 2 0 C2 0.66 2 1.32 2 2 C2.99 2.33 3.98 2.66 5 3 C5.22331199 4.58129029 5.42804644 6.16521089 5.625 7.75 C5.74101562 8.63171875 5.85703125 9.5134375 5.9765625 10.421875 C6.00207817 13.22859878 5.44843844 14.63384866 4 17 C3.67 17 3.34 17 3 17 C2.01 11.39 1.02 5.78 0 0 Z " fill="#5A330C" transform="translate(148,65)"/>
<path d="M0 0 C1.65 0 3.3 0 5 0 C5.33 2.31 5.66 4.62 6 7 C5.34 7 4.68 7 4 7 C3.938125 7.61875 3.87625 8.2375 3.8125 8.875 C3 11 3 11 0.4375 12.25 C-0.366875 12.4975 -1.17125 12.745 -2 13 C-2 12.34 -2 11.68 -2 11 C-1.34 11 -0.68 11 0 11 C0.185625 9.741875 0.37125 8.48375 0.5625 7.1875 C0.66691406 6.47980469 0.77132812 5.77210937 0.87890625 5.04296875 C1.13904799 2.7974658 1.13904799 2.7974658 0 0 Z " fill="#FAD9CD" transform="translate(109,79)"/>
<path d="M0 0 C0 1.65 0 3.3 0 5 C-2.3125 5.6875 -2.3125 5.6875 -5 6 C-6.8125 4.75 -6.8125 4.75 -8 3 C-8 2.01 -8 1.02 -8 0 C-4.71023192 -1.09658936 -3.28696233 -0.79953138 0 0 Z " fill="#7B5742" transform="translate(145,100)"/>
<path d="M0 0 C2.97 0.33 5.94 0.66 9 1 C5.41624224 4.58375776 -0.13500141 4.92387761 -5.0625 5.125 C-5.701875 5.08375 -6.34125 5.0425 -7 5 C-7 4.34 -7 3.68 -7 3 C-3.535 2.505 -3.535 2.505 0 2 C0 1.34 0 0.68 0 0 Z " fill="#664435" transform="translate(132,130)"/>
<path d="M0 0 C0.99 0 1.98 0 3 0 C4.42944945 2.35438733 5.08661261 3.48032433 4.625 6.25 C4.41875 6.8275 4.2125 7.405 4 8 C2.35 7.67 0.7 7.34 -1 7 C-1.33 5.35 -1.66 3.7 -2 2 C-1.34 2 -0.68 2 0 2 C0 1.34 0 0.68 0 0 Z " fill="#F4D2C2" transform="translate(127,104)"/>
<path d="M0 0 C0.99 0.33 1.98 0.66 3 1 C3.33 3.31 3.66 5.62 4 8 C1.69 8.33 -0.62 8.66 -3 9 C-3 8.01 -3 7.02 -3 6 C-2.34 5.67 -1.68 5.34 -1 5 C-0.34444881 2.47266765 -0.34444881 2.47266765 0 0 Z " fill="#613D17" transform="translate(140,66)"/>
<path d="M0 0 C0 0.99 0 1.98 0 3 C-1.65 2.67 -3.3 2.34 -5 2 C-5 2.66 -5 3.32 -5 4 C-6.32 4 -7.64 4 -9 4 C-8.67 4.99 -8.34 5.98 -8 7 C-8.99 7.495 -8.99 7.495 -10 8 C-10 7.01 -10 6.02 -10 5 C-10.66 5 -11.32 5 -12 5 C-12 4.01 -12 3.02 -12 2 C-7.82262526 0.40861915 -4.46839215 -0.21278058 0 0 Z " fill="#E4BE78" transform="translate(141,58)"/>
<path d="M0 0 C3.80993655 0.05472081 3.80993655 0.05472081 6.1875 2 C7.34667778 4.85930518 7.01410615 6.40269806 6.125 9.3125 C5.66609375 8.90257813 5.2071875 8.49265625 4.734375 8.0703125 C3.81398437 7.26207031 3.81398437 7.26207031 2.875 6.4375 C2.27171875 5.90382813 1.6684375 5.37015625 1.046875 4.8203125 C-0.84918746 3.3327513 -2.68790005 2.30927564 -4.875 1.3125 C-3.875 0.3125 -3.875 0.3125 0 0 Z " fill="#623D0F" transform="translate(141.875,55.6875)"/>
<path d="M0 0 C1.65 0.33 3.3 0.66 5 1 C4.01 1.33 3.02 1.66 2 2 C2 4.31 2 6.62 2 9 C-0.02045442 8.39816251 -2.02111039 7.72693904 -4 7 C-4.33 6.34 -4.66 5.68 -5 5 C-3.35 4.34 -1.7 3.68 0 3 C0 2.01 0 1.02 0 0 Z " fill="#735544" transform="translate(177,105)"/>
<path d="M0 0 C0.66 0.33 1.32 0.66 2 1 C1.34 2.32 0.68 3.64 0 5 C-0.66 4.67 -1.32 4.34 -2 4 C-2.66 5.32 -3.32 6.64 -4 8 C-4.33 6.68 -4.66 5.36 -5 4 C-5.99 4 -6.98 4 -8 4 C-8 3.34 -8 2.68 -8 2 C-3.25 1 -3.25 1 -1 1 C-0.67 0.67 -0.34 0.34 0 0 Z " fill="#56321C" transform="translate(140,89)"/>
<path d="M0 0 C1.134375 0.020625 2.26875 0.04125 3.4375 0.0625 C3.4375 1.0525 3.4375 2.0425 3.4375 3.0625 C2.07625 3.4646875 2.07625 3.4646875 0.6875 3.875 C-2.27721963 4.95826294 -4.1794754 6.04609457 -6.5625 8.0625 C-4.38461538 0.07692308 -4.38461538 0.07692308 0 0 Z " fill="#663B0A" transform="translate(84.5625,63.9375)"/>
<path d="M0 0 C0.66 0 1.32 0 2 0 C2 2.31 2 4.62 2 7 C-0.31 8.32 -2.62 9.64 -5 11 C-3.78065514 6.96678237 -2.44045073 3.45730521 0 0 Z " fill="#837164" transform="translate(49,51)"/>
<path d="M0 0 C3 3.75 3 3.75 3 6 C2.34 6 1.68 6 1 6 C1.01160156 6.72445313 1.02320313 7.44890625 1.03515625 8.1953125 C1.08231311 13.24783323 1.07377564 18.03378767 0 23 C-0.33 23 -0.66 23 -1 23 C-1.0272367 20.47909222 -1.04695207 17.95848543 -1.0625 15.4375 C-1.07087891 14.73302734 -1.07925781 14.02855469 -1.08789062 13.30273438 C-1.10882603 8.75975202 -0.74800682 4.48215108 0 0 Z " fill="#4C3526" transform="translate(53,25)"/>
<path d="M0 0 C0 0.33 0 0.66 0 1 C-1.98 1 -3.96 1 -6 1 C-6 1.66 -6 2.32 -6 3 C-6.99 3.495 -6.99 3.495 -8 4 C-8.65213292 6.02463255 -8.65213292 6.02463255 -9 8 C-9.99 8 -10.98 8 -12 8 C-12.25 5.6875 -12.25 5.6875 -12 3 C-8.70976944 -0.97569526 -4.75485572 -0.23774279 0 0 Z " fill="#F5CE85" transform="translate(87,59)"/>
<path d="M0 0 C0.66 1.65 1.32 3.3 2 5 C-0.3125 6.5625 -0.3125 6.5625 -3 8 C-3.99 7.67 -4.98 7.34 -6 7 C-5.67 6.34 -5.34 5.68 -5 5 C-4.34 5 -3.68 5 -3 5 C-3.33 3.68 -3.66 2.36 -4 1 C-2 0 -2 0 0 0 Z " fill="#ECC9B7" transform="translate(100,93)"/>
<path d="M0 0 C1.32 0.99 2.64 1.98 4 3 C-3.42857143 6.28571429 -3.42857143 6.28571429 -7 7 C-7 6.01 -7 5.02 -7 4 C-6.34 4 -5.68 4 -5 4 C-5 3.01 -5 2.02 -5 1 C-3.35 1.33 -1.7 1.66 0 2 C0 1.34 0 0.68 0 0 Z " fill="#643D16" transform="translate(131,56)"/>
<path d="M0 0 C0.66 0.66 1.32 1.32 2 2 C1.625 4.625 1.625 4.625 1 7 C-2.81489674 8.46726798 -5.29011622 7.43336419 -9 6 C-9 5.67 -9 5.34 -9 5 C-6.36 5 -3.72 5 -1 5 C-0.67 3.35 -0.34 1.7 0 0 Z " fill="#9C8D86" transform="translate(194,111)"/>
<path d="M0 0 C-1.28519565 2.86697492 -2.57129254 4.97607712 -5 7 C-5.66 7 -6.32 7 -7 7 C-7 5.02 -7 3.04 -7 1 C-4.50935112 0.31292445 -2.62113708 0 0 0 Z " fill="#4D3627" transform="translate(34,110)"/>
<path d="M0 0 C0.66 0.33 1.32 0.66 2 1 C1.01 3.64 0.02 6.28 -1 9 C-0.34 9.33 0.32 9.66 1 10 C-2.875 9.125 -2.875 9.125 -4 8 C-4.04063832 6.33382885 -4.042721 4.66611905 -4 3 C-2.68 2.67 -1.36 2.34 0 2 C0 1.34 0 0.68 0 0 Z " fill="#846B5A" transform="translate(176,95)"/>
<path d="M0 0 C0.66 0 1.32 0 2 0 C1.98839844 0.67546875 1.97679688 1.3509375 1.96484375 2.046875 C1.95582031 2.93890625 1.94679688 3.8309375 1.9375 4.75 C1.92589844 5.63171875 1.91429688 6.5134375 1.90234375 7.421875 C1.99173802 9.7818838 2.33087179 11.74498524 3 14 C2.01 14 1.02 14 0 14 C-1.13016601 8.97703996 -0.77916092 5.02125926 0 0 Z " fill="#5D360F" transform="translate(69,70)"/>
<path d="M0 0 C4.10958767 1.45044271 7.43258745 3.51110752 11 6 C9 7 9 7 5.5 6.1875 C2 5 2 5 0 3 C0 2.01 0 1.02 0 0 Z " fill="#8A796D" transform="translate(70,15)"/>
<path d="M0 0 C2.125 0.375 2.125 0.375 4 1 C4.33 2.32 4.66 3.64 5 5 C3.02 5.33 1.04 5.66 -1 6 C-1.625 4.125 -1.625 4.125 -2 2 C-1.34 1.34 -0.68 0.68 0 0 Z " fill="#E3C2AE" transform="translate(85,82)"/>
<path d="M0 0 C0.66 0.33 1.32 0.66 2 1 C0.02 1.99 0.02 1.99 -2 3 C-2 3.66 -2 4.32 -2 5 C-3.98 5.99 -5.96 6.98 -8 8 C-8.66 7.34 -9.32 6.68 -10 6 C-8.35 5.67 -6.7 5.34 -5 5 C-5 4.01 -5 3.02 -5 2 C-2.625 0.9375 -2.625 0.9375 0 0 Z " fill="#4F372A" transform="translate(148,16)"/>
<path d="M0 0 C1.98 0.495 1.98 0.495 4 1 C4 2.65 4 4.3 4 6 C2.35 5.67 0.7 5.34 -1 5 C-0.67 3.35 -0.34 1.7 0 0 Z " fill="#E1BDA9" transform="translate(77,101)"/>
<path d="M0 0 C0.33 0 0.66 0 1 0 C1 1.98 1 3.96 1 6 C1.66 5.67 2.32 5.34 3 5 C5.3329866 4.95977609 7.66706666 4.95679753 10 5 C6.05555556 7.62962963 6.05555556 7.62962963 3 8 C0.75 7.0625 0.75 7.0625 -1 6 C-1.042721 4.33388095 -1.04063832 2.66617115 -1 1 C-0.67 0.67 -0.34 0.34 0 0 Z " fill="#978A82" transform="translate(26,111)"/>
<path d="M0 0 C0.5534764 2.07553648 1 3.84365964 1 6 C1.66 6 2.32 6 3 6 C3 7.32 3 8.64 3 10 C1.35 9.67 -0.3 9.34 -2 9 C-1.125 2.25 -1.125 2.25 0 0 Z " fill="#E5C080" transform="translate(123,66)"/>
<path d="M0 0 C-1.62366466 3.24732932 -4.75387839 3.70155136 -8 5 C-8.33 3.35 -8.66 1.7 -9 0 C-5.93109813 -1.53445094 -3.29905734 -0.54984289 0 0 Z " fill="#653C19" transform="translate(83,57)"/>
<path d="M0 0 C0.66 0 1.32 0 2 0 C3.125 4.75 3.125 4.75 2 7 C-0.64860427 7.59355614 -3.29197322 7.74209269 -6 8 C-4.03243548 7.96877057 -4.03243548 7.96877057 -2 7 C-0.52201741 3.62094382 -0.52201741 3.62094382 0 0 Z " fill="#9C8981" transform="translate(197,88)"/>
<path d="M0 0 C0.33 1.32 0.66 2.64 1 4 C-3.625 7 -3.625 7 -7 7 C-6.67 5.35 -6.34 3.7 -6 2 C-3.03 2.495 -3.03 2.495 0 3 C0 2.01 0 1.02 0 0 Z " fill="#57331F" transform="translate(100,88)"/>
<path d="M0 0 C1.24939706 4.55780049 1.8340199 8.9670765 0 13.4375 C-0.33 13.953125 -0.66 14.46875 -1 15 C-2.4002792 9.53891111 -1.42705634 5.30723432 0 0 Z " fill="#7D6C60" transform="translate(43,62)"/>
<path d="M0 0 C1.29315061 0.95632999 2.58446853 1.91513851 3.875 2.875 C4.59429687 3.40867187 5.31359375 3.94234375 6.0546875 4.4921875 C8 6 8 6 10 8 C9.443125 7.855625 8.88625 7.71125 8.3125 7.5625 C5.88615805 6.97230872 3.45093655 6.476571 1 6 C0.67 4.02 0.34 2.04 0 0 Z " fill="#9F8E7F" transform="translate(81,22)"/>
<path d="M0 0 C0.66 0.99 1.32 1.98 2 3 C-1.40869565 8.72173913 -1.40869565 8.72173913 -4.125 10 C-4.74375 10 -5.3625 10 -6 10 C-6.66 9.34 -7.32 8.68 -8 8 C-6.35 7.67 -4.7 7.34 -3 7 C-2.67 5.68 -2.34 4.36 -2 3 C-1.34 3 -0.68 3 0 3 C0 2.01 0 1.02 0 0 Z " fill="#532E1A" transform="translate(84,99)"/>
<path d="M0 0 C0.66 0.33 1.32 0.66 2 1 C2.625 3.5625 2.625 3.5625 3 6 C1.35 6.33 -0.3 6.66 -2 7 C-2 5.35 -2 3.7 -2 2 C-1.34 2 -0.68 2 0 2 C0 1.34 0 0.68 0 0 Z " fill="#F9D7CA" transform="translate(126,99)"/>
<path d="M0 0 C1.98 0.495 1.98 0.495 4 1 C4 2.32 4 3.64 4 5 C2.35 5 0.7 5 -1 5 C-0.67 3.35 -0.34 1.7 0 0 Z " fill="#ECCBB5" transform="translate(64,88)"/>
<path d="M0 0 C1.32 0.33 2.64 0.66 4 1 C4 1.99 4 2.98 4 4 C1.625 4.625 1.625 4.625 -1 5 C-1.66 4.34 -2.32 3.68 -3 3 C-2.34 3 -1.68 3 -1 3 C-0.67 2.01 -0.34 1.02 0 0 Z " fill="#E9C674" transform="translate(142,61)"/>
<path d="M0 0 C0.99 0.33 1.98 0.66 3 1 C3 2.65 3 4.3 3 6 C1.68 6 0.36 6 -1 6 C-1.042721 4.33388095 -1.04063832 2.66617115 -1 1 C-0.67 0.67 -0.34 0.34 0 0 Z " fill="#E7C7B4" transform="translate(141,100)"/>
<path d="M0 0 C0.66 0 1.32 0 2 0 C4.83022097 3.99560608 3.76210446 7.42737323 3 12 C2.67 12 2.34 12 2 12 C1.34 8.04 0.68 4.08 0 0 Z " fill="#633A06" transform="translate(148,65)"/>
<path d="M0 0 C0.66 0.33 1.32 0.66 2 1 C1.67 2.65 1.34 4.3 1 6 C-1.31 5.34 -3.62 4.68 -6 4 C-6 3.67 -6 3.34 -6 3 C-4.02 3 -2.04 3 0 3 C0 2.01 0 1.02 0 0 Z " fill="#EBCABA" transform="translate(123,96)"/>
<path d="M0 0 C0.33 0.66 0.66 1.32 1 2 C0.67 2.66 0.34 3.32 0 4 C1.98 3.34 3.96 2.68 6 2 C6.33 3.32 6.66 4.64 7 6 C4.36 5.67 1.72 5.34 -1 5 C-1.33 4.01 -1.66 3.02 -2 2 C-1.34 1.34 -0.68 0.68 0 0 Z " fill="#633D28" transform="translate(132,77)"/>
<path d="M0 0 C0.33 0.99 0.66 1.98 1 3 C-3.29299643 4.26264601 -5.87831311 3.62950412 -10 2 C-10 1.67 -10 1.34 -10 1 C-7.98177083 1.03255208 -5.96354167 1.06510417 -3.9453125 1.09765625 C-1.91814596 1.12649242 -1.91814596 1.12649242 0 0 Z " fill="#FAD181" transform="translate(92,61)"/>
<path d="M0 0 C0.66 0 1.32 0 2 0 C2.33 1.65 2.66 3.3 3 5 C2.34 5 1.68 5 1 5 C0.34 6.32 -0.32 7.64 -1 9 C-1.09765625 2.84765625 -1.09765625 2.84765625 -1 1 C-0.67 0.67 -0.34 0.34 0 0 Z " fill="#4F3425" transform="translate(57,15)"/>
<path d="M0 0 C0 0.66 0 1.32 0 2 C0.99 2.33 1.98 2.66 3 3 C1.741875 2.87625 0.48375 2.7525 -0.8125 2.625 C-1.87404297 2.52058594 -1.87404297 2.52058594 -2.95703125 2.4140625 C-5 2 -5 2 -8 0 C-4.71023192 -1.09658936 -3.28696233 -0.79953138 0 0 Z " fill="#7B6253" transform="translate(82,131)"/>
<path d="M0 0 C-0.33 2.31 -0.66 4.62 -1 7 C-1.66 7 -2.32 7 -3 7 C-3 6.34 -3 5.68 -3 5 C-3.66 5 -4.32 5 -5 5 C-5 4.34 -5 3.68 -5 3 C-1.42307692 0 -1.42307692 0 0 0 Z " fill="#FCDACD" transform="translate(130,90)"/>
<path d="M0 0 C-0.33 1.65 -0.66 3.3 -1 5 C-1.33 4.34 -1.66 3.68 -2 3 C-4.31 3.66 -6.62 4.32 -9 5 C-6.45523312 2.20075644 -3.92372883 0 0 0 Z " fill="#9F9188" transform="translate(152,13)"/>
<path d="M0 0 C0.99 0.66 1.98 1.32 3 2 C-0.96 3.98 -0.96 3.98 -5 6 C-5.33 5.34 -5.66 4.68 -6 4 C-5.01 4 -4.02 4 -3 4 C-2.67 3.01 -2.34 2.02 -2 1 C-1.34 0.67 -0.68 0.34 0 0 Z " fill="#755744" transform="translate(153,123)"/>
<path d="M0 0 C2 0 4 0 6 0 C5.67 1.32 5.34 2.64 5 4 C3.35 3.67 1.7 3.34 0 3 C0 2.01 0 1.02 0 0 Z " fill="#E4C2AE" transform="translate(126,108)"/>
<path d="M0 0 C0 0.33 0 0.66 0 1 C-3.3 1.33 -6.6 1.66 -10 2 C-10 1.34 -10 0.68 -10 0 C-6.7169902 -1.6415049 -3.57454967 -0.51888624 0 0 Z " fill="#6F5745" transform="translate(135,133)"/>
<path d="M0 0 C0.99 0 1.98 0 3 0 C2.67 1.65 2.34 3.3 2 5 C1.01 5 0.02 5 -1 5 C-0.67 3.35 -0.34 1.7 0 0 Z " fill="#FAD9CE" transform="translate(89,92)"/>
<path d="M0 0 C0.33 0.66 0.66 1.32 1 2 C1.99 2 2.98 2 4 2 C3.67 3.65 3.34 5.3 3 7 C2.01 6.67 1.02 6.34 0 6 C0 4.02 0 2.04 0 0 Z " fill="#5E350E" transform="translate(76,76)"/>
<path d="M0 0 C0 0.99 0 1.98 0 3 C-1.11375 3.433125 -1.11375 3.433125 -2.25 3.875 C-4.56739797 4.82302644 -6.77917115 5.84845911 -9 7 C-3.65789474 0 -3.65789474 0 0 0 Z " fill="#B0A49B" transform="translate(143,18)"/>
<path d="M0 0 C0.99 0 1.98 0 3 0 C4.35439668 2.70879335 4.06501451 5.00933268 4 8 C3.01 7.67 2.02 7.34 1 7 C0.67 4.69 0.34 2.38 0 0 Z " fill="#503324" transform="translate(160,19)"/>
</svg>
